HIERARCHY
ROOT Hips
{
	OFFSET -3.958830 18.904000 13.208200
	CHANNELS 6 Xposition Yposition Zposition Zrotation Yrotation Xrotation 
	JOINT LHipJoint
	{
		OFFSET 0.000000 0.000000 0.000000
		CHANNELS 3 Zrotation Yrotation Xrotation
		JOINT LeftUpLeg
		{
			OFFSET 1.800000 -1.400000 0.085000
			CHANNELS 3 Zrotation Yrotation Xrotation
			JOINT LeftLeg
			{
				OFFSET 2.215000 -6.000000 0.000000
				CHANNELS 3 Zrotation Yrotation Xrotation
				JOINT LeftFoot
				{
					OFFSET 2.500000 -6.900000 0.000000
					CHANNELS 3 Zrotation Yrotation Xrotation
					JOINT LeftToeBase
					{
						OFFSET 0.200000 -0.500000 1.950000
						CHANNELS 3 Zrotation Yrotation Xrotation
						End Site
						{
							OFFSET 0.000000 0.000000 0.000000
						}
					}
				}
			}
		}
	}
	JOINT RHipJoint
	{
		OFFSET 0.000000 0.000000 0.000000
		CHANNELS 3 Zrotation Yrotation Xrotation
		JOINT RightUpLeg
		{
			OFFSET -1.800000 -1.400000 0.085000
			CHANNELS 3 Zrotation Yrotation Xrotation
			JOINT RightLeg
			{
				OFFSET -2.215000 -6.000000 0.000000
				CHANNELS 3 Zrotation Yrotation Xrotation
				JOINT RightFoot
				{
					OFFSET -2.500000 -6.900000 0.000000
					CHANNELS 3 Zrotation Yrotation Xrotation
					JOINT RightToeBase
					{
						OFFSET -0.200000 -0.500000 1.950000
						CHANNELS 3 Zrotation Yrotation Xrotation
						End Site
						{
							OFFSET 0.000000 0.000000 0.000000
						}
					}
				}
			}
		}
	}
	JOINT LowerBack
	{
		OFFSET 0.000000 0.000000 0.000000
		CHANNELS 3 Zrotation Yrotation Xrotation
		JOINT Spine
		{
			OFFSET -0.087000 1.940000 -0.288900
			CHANNELS 3 Zrotation Yrotation Xrotation
			JOINT Spine1
			{
				OFFSET 0.000000 1.950000 0.060000
				CHANNELS 3 Zrotation Yrotation Xrotation
				JOINT Neck
				{
					OFFSET 0.000000 0.000000 0.000000
					CHANNELS 3 Zrotation Yrotation Xrotation
					JOINT Neck1
					{
						OFFSET 0.000000 1.600000 0.340000
						CHANNELS 3 Zrotation Yrotation Xrotation
						JOINT Head
						{
							OFFSET 0.000000 1.667000 -0.240000
							CHANNELS 3 Zrotation Yrotation Xrotation
							End Site
							{
								OFFSET 0.000000 0.000000 0.000000
							}
						}
					}
				}
				JOINT LeftShoulder
				{
					OFFSET 0.000000 0.000000 0.000000
					CHANNELS 3 Zrotation Yrotation Xrotation
					JOINT LeftArm
					{
						OFFSET 2.700000 1.550000 -0.730000
						CHANNELS 3 Zrotation Yrotation Xrotation
						JOINT LeftForeArm
						{
							OFFSET 5.450000 0.000000 0.000000
							CHANNELS 3 Zrotation Yrotation Xrotation
							JOINT LeftHand
							{
								OFFSET 3.450000 0.000000 0.000000
								CHANNELS 3 Zrotation Yrotation Xrotation
								JOINT LeftHandIndex1
								{
									OFFSET 0.750000 0.000000 0.000000
									CHANNELS 3 Zrotation Yrotation Xrotation
									End Site
									{
										OFFSET 0.000000 0.000000 0.000000
									}
								}
							}
						}
					}
				}
				JOINT RightShoulder
				{
					OFFSET 0.000000 0.000000 0.000000
					CHANNELS 3 Zrotation Yrotation Xrotation
					JOINT RightArm
					{
						OFFSET -2.700000 1.550000 -0.730000
						CHANNELS 3 Zrotation Yrotation Xrotation
						JOINT RightForeArm
						{
							OFFSET -5.450000 0.000000 0.000000
							CHANNELS 3 Zrotation Yrotation Xrotation
							JOINT RightHand
							{
								OFFSET -3.450000 0.000000 0.000000
								CHANNELS 3 Zrotation Yrotation Xrotation
								JOINT RightHandIndex1
								{
									OFFSET -0.750000 0.000000 0.000000
									CHANNELS 3 Zrotation Yrotation Xrotation
									End Site
									{
										OFFSET 0.000000 0.000000 0.000000
									}
								}
							}
						}
					}
				}
			}
		}
	}
}
MOTION
Frames: 10
Frame Time: 0.016667
-0.698910 16.229370 -5.079860 -4.551691 4.526628 -7.213916 -15.515304 12.224792 5.081804 32.107184 -2.128775 -26.707756 -17.768800 19.100974 41.254687 0.386281 10.975395 0.629884 0.312140 -0.206760 0.408180 18.121743 -9.452757 2.550909 -22.735532 5.142685 -24.790405 12.107141 -14.721235 44.947502 -1.148879 -7.649237 1.650207 -0.175370 0.045280 0.299550 -3.004403 -2.847448 -9.307310 6.476169 -1.447696 40.489752 -4.435890 2.798244 -3.038318 3.119900 -1.419905 -13.843966 -7.511250 0.454898 44.083975 0.948270 -0.564640 -28.312640 -26.773544 -18.716241 5.125208 -30.648912 -5.256426 -3.559135 -0.356930 -16.590249 -1.404832 -3.482000 2.545212 1.144120 -0.205310 0.303410 0.096860 20.876673 22.006924 11.488288 38.191892 -2.083996 -13.623999 74.327084 54.931553 28.745325 2.194568 -1.341058 -0.302620 0.313630 0.092120 -0.363470 
-0.744980 16.187690 -5.098180 -4.452715 5.201506 -7.708247 -15.537502 12.089850 5.187528 33.019558 -2.287542 -27.029854 -18.461453 19.583811 41.756638 0.424195 11.170443 0.559480 0.300900 -0.227660 0.419170 18.130977 -9.329524 2.598883 -23.240529 5.370125 -24.911991 12.970265 -15.520687 46.051227 -1.231966 -7.947320 1.549153 -0.195660 0.021800 0.301340 -2.992148 -2.845167 -9.398966 5.864095 -1.451357 42.923237 -4.436327 2.858493 -4.623400 3.141147 -1.040280 -14.389703 -6.885734 0.237697 44.407611 1.331370 -0.372030 -29.627420 -26.860664 -19.389497 5.418054 -29.028038 -4.512411 -3.607753 -1.005093 -16.742695 -1.268313 -3.462167 2.535504 1.177290 -0.227680 0.321630 0.077560 21.028214 22.538832 11.750730 36.692612 -2.966734 -13.549343 76.172730 53.633871 28.928110 2.196896 -1.327036 -0.306120 0.305210 0.100680 -0.379650 
-0.802460 16.147020 -5.124690 -4.872674 5.559125 -8.666401 -15.546873 11.932889 5.294392 34.504423 -2.178984 -27.163480 -18.847423 20.058198 42.417813 0.472329 11.367439 0.490374 0.310690 -0.220220 0.446560 18.161530 -9.189864 2.671770 -22.977170 6.086016 -25.212384 13.544904 -16.394959 48.181232 -1.371574 -8.342339 1.428056 -0.207060 -0.016570 0.299140 -3.028179 -2.780714 -9.510563 6.099475 -1.763190 46.307449 -4.912352 3.129027 -6.554379 3.287627 -0.852020 -15.221459 -6.868621 0.081790 45.562451 1.954200 -0.441290 -31.462160 -26.945478 -20.290501 5.685799 -27.368452 -3.902729 -3.609588 -1.272954 -16.448598 -1.167524 -3.426337 2.503868 1.221090 -0.268730 0.363860 0.068850 20.975962 23.538616 12.235871 35.196517 -4.213564 -13.700114 78.187617 51.856987 28.672327 2.197331 -1.309650 -0.300430 0.308630 0.089970 -0.390100 
-0.863610 16.097130 -5.141990 -4.956520 5.942425 -9.015453 -15.578970 11.774095 5.386890 35.358384 -2.161342 -28.123114 -18.692615 20.606658 43.850729 0.485708 11.616512 0.398970 0.304010 -0.237980 0.459490 18.179187 -8.992126 2.792519 -23.107271 6.747358 -26.257717 14.038715 -17.433784 50.565590 -1.495826 -8.817093 1.283070 -0.211000 -0.034320 0.289760 -3.005342 -2.800405 -9.632831 5.867820 -1.635557 48.412798 -4.939621 3.535653 -8.267792 3.411224 -0.568864 -15.717058 -6.530422 -0.259423 46.251102 2.085210 -0.608930 -32.074510 -27.133076 -20.775574 5.741620 -26.202527 -3.624868 -3.466425 -1.330217 -15.886589 -1.129060 -3.430028 2.461055 1.256860 -0.283950 0.371550 0.049220 21.082148 24.078765 12.416167 33.562596 -5.006601 -13.477951 78.307966 49.448206 27.162784 2.164240 -1.296850 -0.319780 0.315660 0.102850 -0.413170 
-0.909860 16.051530 -5.124930 -4.663146 6.497036 -9.582092 -15.579884 11.750421 5.354748 35.246257 -2.262308 -28.492345 -17.784967 20.752295 45.382907 0.530695 11.711555 0.356412 0.320630 -0.218310 0.476800 18.184200 -8.932003 2.887244 -23.536964 7.058808 -26.603017 14.284354 -18.367963 52.666086 -1.619850 -9.240635 1.147497 -0.215780 -0.066740 0.299330 -3.009838 -2.801949 -9.696841 5.750321 -1.510442 49.526223 -5.091637 3.763758 -9.865764 3.480393 -0.332924 -16.214931 -6.500122 -0.449439 48.073297 2.646510 -1.064710 -31.716610 -27.662212 -20.957116 5.820624 -25.696165 -2.784986 -3.538041 -1.499274 -15.614622 -1.076955 -3.410865 2.467463 1.261320 -0.305600 0.398900 0.042510 21.634318 24.266763 12.575165 32.551505 -6.139085 -13.238619 77.125864 46.664640 24.766774 2.150717 -1.305240 -0.290580 0.293120 0.090890 -0.409750 
-0.947470 15.991920 -5.077980 -4.318559 6.807399 -9.898516 -15.577925 11.780922 5.278557 34.926592 -2.204083 -28.612861 -16.502929 20.818854 46.927252 0.544377 11.800762 0.315022 0.312990 -0.225980 0.474250 18.184573 -8.912467 2.954971 -23.851696 7.201795 -26.887543 14.092813 -19.097064 54.619181 -1.701535 -9.606252 1.038898 -0.218450 -0.072560 0.295900 -3.011267 -2.820483 -9.724330 5.838118 -1.383065 49.024557 -5.188335 3.858099 -10.737178 3.476244 -0.142643 -16.191370 -6.328608 -0.326028 49.364048 2.808880 -1.156550 -30.600100 -28.270867 -20.487606 5.725030 -25.762040 -1.970696 -3.495473 -2.174419 -15.096848 -1.018878 -3.422263 2.460928 1.256680 -0.302280 0.393320 0.026830 22.302370 23.651273 12.397226 32.312476 -6.783597 -12.852349 75.614611 44.078668 22.516856 2.135060 -1.300945 -0.288460 0.284480 0.102320 -0.414800 
-0.983440 15.920870 -5.015660 -4.214902 7.212873 -10.039867 -15.586101 11.779077 5.232338 34.841770 -2.034559 -29.216579 -14.759196 20.939914 49.110714 0.554044 11.999872 0.256364 0.292640 -0.256640 0.465910 18.190449 -8.859778 3.012636 -23.982121 7.256552 -27.243025 13.903354 -20.026355 56.690454 -1.792371 -10.029999 0.915768 -0.218860 -0.043850 0.299850 -3.006112 -2.859556 -9.761392 6.408503 -1.586080 47.161070 -5.392370 3.757223 -10.345713 3.523044 0.154761 -15.786667 -5.730004 -0.387797 49.871447 2.133360 -1.160650 -28.984780 -28.969752 -19.917271 5.624686 -26.483884 -1.469255 -3.295576 -2.259925 -13.878789 -1.084215 -3.467425 2.439007 1.249530 -0.273910 0.371830 0.019240 22.749563 22.750499 11.973411 33.285238 -6.781026 -12.856031 72.789613 42.838005 20.609788 2.115789 -1.282590 -0.308920 0.296550 0.125660 -0.420210 
-1.013560 15.858310 -4.930890 -3.886205 7.069393 -10.862849 -15.573372 11.880501 5.120285 34.815346 -1.635184 -28.370987 -13.401482 21.145213 50.770584 0.594748 12.156286 0.213885 0.317610 -0.223110 0.466420 18.191193 -8.904096 2.999943 -24.171239 7.293401 -26.611103 13.309893 -20.581156 58.669278 -1.875230 -10.371892 0.826409 -0.187080 -0.028500 0.288200 -3.028977 -2.898176 -9.734835 7.042156 -1.839782 45.101004 -5.408995 3.461587 -9.310143 3.433223 -0.473349 -15.078984 -7.077360 0.364828 50.591081 2.218340 -1.422660 -27.817300 -30.108134 -18.758326 5.294054 -27.177369 -0.854663 -2.989691 -2.850291 -12.114373 -1.117770 -3.478670 2.435128 1.228170 -0.263450 0.356460 0.033080 23.966537 21.784179 11.429731 33.682760 -6.556940 -12.834092 69.582048 42.178961 19.075841 2.093406 -1.286894 -0.309070 0.315610 0.117650 -0.409540 
-1.043520 15.796780 -4.846340 -3.850668 6.728744 -11.912641 -15.554102 11.935694 5.022056 35.255946 -1.044523 -27.335538 -12.114752 21.437940 52.410977 0.636504 12.334178 0.151448 0.381320 -0.145750 0.494930 18.207426 -8.966673 2.962648 -24.015246 7.370217 -25.719817 12.750211 -21.104963 60.524721 -1.977833 -10.700948 0.730253 -0.131240 -0.036520 0.298090 -3.083245 -2.832251 -9.694758 8.192362 -2.182148 42.409967 -5.795319 3.216721 -7.001577 3.442304 -0.613659 -14.073746 -7.222327 0.870755 51.247891 2.036990 -1.250840 -27.300650 -30.812284 -17.665049 4.890437 -28.263745 -1.104565 -2.555436 -3.188186 -9.920543 -1.201157 -3.494936 2.455120 1.209870 -0.256390 0.361830 0.052080 24.335388 20.498811 10.631847 34.798676 -5.572874 -13.028805 66.653003 41.934427 17.790633 2.072633 -1.311727 -0.289940 0.314810 0.091740 -0.404950 
-1.068730 15.727830 -4.758500 -3.936734 6.279620 -12.272549 -15.522469 11.864941 4.966159 35.921501 -0.330933 -26.865542 -10.990741 21.962244 54.094909 0.683919 12.599828 0.084910 0.416390 -0.103870 0.487640 18.264882 -8.970897 2.970443 -24.090575 7.442304 -25.626747 12.385808 -21.864775 62.378562 -2.065312 -11.100293 0.628021 -0.080300 0.005620 0.307920 -3.209270 -2.658463 -9.682625 10.092182 -2.678074 38.572728 -6.534466 2.811900 -4.542718 3.510446 -0.973077 -12.756624 -7.529313 1.368217 50.807741 1.240360 -1.221460 -25.234890 -31.475133 -15.991801 4.206577 -29.605584 -1.296262 -2.192252 -3.461331 -7.974732 -1.284346 -3.550057 2.468191 1.168310 -0.209270 0.327770 0.083440 24.474928 18.640905 9.635720 36.362822 -4.473945 -13.060697 63.782639 41.637301 16.600987 2.039990 -1.347088 -0.293360 0.327710 0.084130 -0.392510 
